# xmcd
#
# Track frame offsets:
#	150
#	25086
#	50787
#	71381
#	91613
#	108464
#	132962
#	158969
#	184725
#
# Disc length: 2831 seconds
#
# Revision: 2
# Processed by: cddbd v1.5.2PL0 Copyright (c) Steve Scherf et al.
# Submitted via: EasyCDDAExtractor 16.0.9.1
#
DISCID=710b0d09
DTITLE=Trọng Tấn - TLCD: Trọng Tấn Vol.10 - Ánh Mắt Quê Hương
DYEAR=2013
DGENRE=Country
TTITLE0=Thì Thầm Với Dòng Sông (Nhạc: Thuận Yến, Lời Thơ: Hoài Vũ)
TTITLE1=Bến Đợi (Nhạc: Thuận Yến, Thơ: Hồ Ngọc Chương)
TTITLE2=Em Tôi (Thuận Yến)
TTITLE3=Nụ Hồng (Trần Hữu Bích)
TTITLE4=Ở Hai Đầu Nỗi Nhớ (Nhạc: Phan Huỳnh Điểu, Thơ: Trần Hoài Thu)
TTITLE5=Chiều Nắng (Nguyễn Đình San)
TTITLE6=Giếng Quê (Thuận Yến)
TTITLE7=Đôi Mắt Quê Hương (Hoàng Phương)
TTITLE8=Trở Về (Nhạc: Tuấn Phương, Thơ: Lê Tự Minh)
EXTD=
EXTT0=
EXTT1=
EXTT2=
EXTT3=
EXTT4=
EXTT5=
EXTT6=
EXTT7=
EXTT8=
PLAYORDER=
